<svg width="48" height="48" viewBox="0 0 48 48" xmlns="http://www.w3.org/2000/svg" fill="none"><style>.a{fill-opacity:0.3;fill:#1F2041;}</style><path d="M24 32.5C23.2 32.5 22.6 31.8 22.6 31.1 22.6 25.6 18.1 21.2 12.7 21.2 11.9 21.2 11.3 20.5 11.3 19.8 11.3 19 11.9 18.4 12.7 18.4 19.7 18.4 25.4 24 25.4 31.1 25.4 31.8 24.8 32.5 24 32.5Z" class="a"/><path d="M36.7 19.8C36.7 20.5 36.1 21.2 35.3 21.2 31.9 21.2 28.9 22.9 27.2 25.4 26.8 24.5 26.3 23.5 25.8 22.7 28.1 20 31.5 18.4 35.3 18.4 36.1 18.4 36.7 19 36.7 19.8Z" class="a"/><path d="M24 48C10.8 48 0 37.2 0 24 0 10.8 10.8 0 24 0 37.2 0 48 10.8 48 24 48 37.2 37.2 48 24 48ZM24 2.8C12.3 2.8 2.8 12.3 2.8 24 2.8 35.7 12.3 45.2 24 45.2 35.7 45.2 45.2 35.7 45.2 24 45.2 12.3 35.7 2.8 24 2.8Z" class="a"/></svg>